<?xml version="1.0" encoding="UTF-8"?>
<svg xmlns="http://www.w3.org/2000/svg" xmlns:xlink="http://www.w3.org/1999/xlink" width="40px" height="40px" viewBox="0 0 40 40" version="1.1">
<g id="surface1">
<path style=" stroke:none;fill-rule:nonzero;fill:rgb(0%,0%,0%);fill-opacity:1;" d="M 2.03125 3.40625 C 1.53125 3.539062 0.875 3.960938 0.585938 4.34375 C 0.179688 4.867188 0.046875 5.296875 0.046875 6.015625 C 0.0390625 6.820312 0.265625 7.375 0.804688 7.921875 C 1.25 8.359375 1.632812 8.5625 2.289062 8.679688 C 4.078125 9.007812 5.734375 7.34375 5.390625 5.554688 C 5.1875 4.476562 4.4375 3.671875 3.382812 3.398438 C 2.835938 3.257812 2.585938 3.257812 2.03125 3.40625 Z M 2.03125 3.40625 "/>
<path style=" stroke:none;fill-rule:nonzero;fill:rgb(0%,0%,0%);fill-opacity:1;" d="M 8.765625 3.367188 C 7.945312 3.523438 7.234375 4.101562 6.851562 4.90625 C 6.664062 5.304688 6.625 5.5 6.617188 5.960938 C 6.617188 6.273438 6.664062 6.664062 6.71875 6.835938 C 6.882812 7.34375 7.320312 7.9375 7.757812 8.234375 C 8.5625 8.78125 7.546875 8.75 23.257812 8.75 C 33.429688 8.75 37.53125 8.726562 37.828125 8.664062 C 38.679688 8.484375 39.382812 7.921875 39.75 7.125 C 39.921875 6.75 39.960938 6.570312 39.953125 6.015625 C 39.953125 5.023438 39.601562 4.34375 38.804688 3.796875 C 38 3.25 39.023438 3.28125 23.28125 3.289062 C 15.484375 3.296875 8.953125 3.328125 8.765625 3.367188 Z M 8.765625 3.367188 "/>
<path style=" stroke:none;fill-rule:nonzero;fill:rgb(0%,0%,0%);fill-opacity:1;" d="M 2.195312 12.898438 C 1.6875 13 1.210938 13.257812 0.8125 13.648438 C -0.25 14.71875 -0.25 16.390625 0.820312 17.460938 C 1.882812 18.53125 3.5625 18.53125 4.617188 17.476562 C 6.171875 15.921875 5.367188 13.296875 3.203125 12.890625 C 2.742188 12.804688 2.671875 12.804688 2.195312 12.898438 Z M 2.195312 12.898438 "/>
<path style=" stroke:none;fill-rule:nonzero;fill:rgb(0%,0%,0%);fill-opacity:1;" d="M 8.78125 12.890625 C 7.554688 13.132812 6.632812 14.25 6.617188 15.492188 C 6.617188 15.804688 6.65625 16.195312 6.710938 16.367188 C 7.007812 17.257812 7.84375 18.015625 8.71875 18.195312 C 9.070312 18.265625 12.523438 18.28125 23.554688 18.265625 L 37.929688 18.242188 L 38.375 18.03125 C 39.539062 17.492188 40.203125 16.179688 39.921875 14.992188 C 39.78125 14.40625 39.59375 14.0625 39.1875 13.648438 C 38.773438 13.234375 38.328125 13 37.742188 12.890625 C 37.234375 12.796875 9.265625 12.796875 8.78125 12.890625 Z M 8.78125 12.890625 "/>
<path style=" stroke:none;fill-rule:nonzero;fill:rgb(0%,0%,0%);fill-opacity:1;" d="M 1.976562 22.070312 C -0.03125 22.695312 -0.648438 25.15625 0.84375 26.609375 C 1.90625 27.648438 3.625 27.625 4.664062 26.546875 C 5.585938 25.601562 5.679688 24.117188 4.890625 23.039062 C 4.25 22.164062 3 21.75 1.976562 22.070312 Z M 1.976562 22.070312 "/>
<path style=" stroke:none;fill-rule:nonzero;fill:rgb(0%,0%,0%);fill-opacity:1;" d="M 8.460938 22.101562 C 7.671875 22.375 7.03125 22.992188 6.75 23.757812 C 6.539062 24.320312 6.578125 25.203125 6.828125 25.75 C 7.226562 26.617188 7.960938 27.179688 8.914062 27.34375 C 9.265625 27.40625 13.617188 27.421875 23.632812 27.40625 L 37.851562 27.382812 L 38.359375 27.140625 C 39.820312 26.4375 40.382812 24.890625 39.6875 23.46875 C 39.40625 22.898438 38.976562 22.484375 38.367188 22.195312 L 37.929688 21.992188 L 23.398438 21.976562 C 9.578125 21.960938 8.84375 21.960938 8.460938 22.101562 Z M 8.460938 22.101562 "/>
<path style=" stroke:none;fill-rule:nonzero;fill:rgb(0%,0%,0%);fill-opacity:1;" d="M 2.070312 31.359375 C 1.53125 31.492188 1.210938 31.671875 0.804688 32.078125 C 0.265625 32.625 0.0390625 33.179688 0.046875 33.984375 C 0.046875 34.976562 0.398438 35.65625 1.195312 36.203125 C 2.828125 37.320312 5.015625 36.398438 5.390625 34.445312 C 5.648438 33.101562 4.757812 31.71875 3.398438 31.367188 C 2.859375 31.226562 2.601562 31.226562 2.070312 31.359375 Z M 2.070312 31.359375 "/>
<path style=" stroke:none;fill-rule:nonzero;fill:rgb(0%,0%,0%);fill-opacity:1;" d="M 8.59375 31.375 C 6.3125 31.984375 5.898438 35.023438 7.914062 36.304688 C 8.609375 36.742188 7.875 36.71875 23.484375 36.703125 L 37.851562 36.679688 L 38.304688 36.5 C 38.882812 36.265625 39.476562 35.6875 39.75 35.101562 C 39.921875 34.71875 39.960938 34.539062 39.960938 33.984375 C 39.960938 33.429688 39.921875 33.25 39.75 32.875 C 39.382812 32.078125 38.679688 31.515625 37.828125 31.335938 C 37.53125 31.273438 33.4375 31.25 23.21875 31.257812 C 10.976562 31.257812 8.960938 31.273438 8.59375 31.375 Z M 8.59375 31.375 "/>
</g>
</svg>
