<?xml version="1.0" encoding="UTF-8"?>
<svg xmlns="http://www.w3.org/2000/svg" xmlns:xlink="http://www.w3.org/1999/xlink" width="40px" height="40px" viewBox="0 0 40 40" version="1.1">
<g id="surface1">
<path style=" stroke:none;fill-rule:nonzero;fill:rgb(0%,0%,0%);fill-opacity:1;" d="M 4.914062 1.078125 C 4.578125 1.25 4.453125 1.375 4.28125 1.710938 L 4.0625 2.125 L 4.0625 37.875 L 4.28125 38.289062 C 4.664062 39.023438 5.546875 39.328125 6.289062 38.992188 C 6.734375 38.789062 7.078125 38.375 7.179688 37.890625 C 7.234375 37.617188 7.265625 35.445312 7.265625 31.085938 C 7.265625 25.015625 7.273438 24.679688 7.40625 24.71875 C 7.476562 24.742188 7.976562 24.820312 8.515625 24.898438 C 9.28125 25.007812 10 25.039062 11.796875 25.03125 C 14.648438 25.023438 15.53125 24.9375 21.210938 24.109375 C 27.070312 23.25 29.851562 23.242188 33.304688 24.054688 C 34.5 24.335938 34.96875 24.257812 35.484375 23.6875 C 35.765625 23.375 35.9375 22.960938 35.9375 22.570312 C 35.9375 22.265625 35.054688 20.203125 32.960938 15.617188 C 32.320312 14.21875 31.796875 13.023438 31.796875 12.96875 C 31.796875 12.84375 33.382812 9.8125 34.789062 7.265625 C 35.882812 5.273438 36.039062 4.859375 35.875 4.304688 C 35.679688 3.65625 35.257812 3.34375 34.117188 3.015625 C 32.367188 2.507812 30.328125 2.304688 27.625 2.367188 C 25.09375 2.429688 24.007812 2.539062 18.984375 3.273438 C 13.734375 4.039062 10.921875 4.15625 8.320312 3.710938 C 7.164062 3.515625 7.265625 3.585938 7.265625 3.007812 C 7.265625 1.921875 6.96875 1.3125 6.289062 1.007812 C 5.835938 0.796875 5.40625 0.820312 4.914062 1.078125 Z M 30.8125 5.664062 C 31.367188 5.726562 31.84375 5.796875 31.859375 5.820312 C 31.882812 5.835938 31.453125 6.671875 30.921875 7.671875 C 30.382812 8.671875 29.59375 10.171875 29.171875 11 C 28.140625 13 28.140625 12.820312 29.21875 15.117188 C 30.320312 17.476562 31.640625 20.421875 31.601562 20.453125 C 31.585938 20.46875 31.234375 20.4375 30.804688 20.382812 C 29.835938 20.265625 26.773438 20.265625 25.390625 20.382812 C 23.9375 20.507812 22.9375 20.640625 19.492188 21.132812 C 15.484375 21.710938 13.765625 21.875 11.84375 21.875 C 10.179688 21.875 9.273438 21.804688 8.023438 21.59375 L 7.265625 21.460938 L 7.265625 6.773438 L 7.59375 6.828125 C 9.453125 7.132812 11.195312 7.226562 13.164062 7.117188 C 15.210938 7.007812 16.476562 6.867188 20.234375 6.328125 C 25.203125 5.625 25.710938 5.570312 28.046875 5.554688 C 29.1875 5.546875 30.164062 5.585938 30.8125 5.664062 Z M 30.8125 5.664062 "/>
</g>
</svg>
