<?xml version="1.0" encoding="UTF-8"?>
<svg xmlns="http://www.w3.org/2000/svg" xmlns:xlink="http://www.w3.org/1999/xlink" width="40px" height="40px" viewBox="0 0 40 40" version="1.1">
<g id="surface1">
<path style=" stroke:none;fill-rule:nonzero;fill:rgb(0%,0%,0%);fill-opacity:1;" d="M 16.5625 1.867188 L 11.132812 3.640625 L 11.109375 7.835938 L 11.09375 12.03125 L 17.734375 12.03125 L 17.734375 8.90625 L 14.21875 8.90625 L 14.234375 7.40625 L 14.257812 5.90625 L 17.109375 4.984375 C 18.679688 4.476562 19.984375 4.0625 20.007812 4.0625 C 20.039062 4.0625 20.15625 4.210938 20.273438 4.390625 C 21.070312 5.601562 22.242188 6.5 23.59375 6.9375 C 25.359375 7.515625 27.234375 7.289062 28.890625 6.3125 C 29.4375 5.984375 30.351562 5.101562 30.742188 4.507812 C 30.90625 4.265625 31.078125 4.0625 31.125 4.070312 C 31.171875 4.070312 32.476562 4.484375 34.023438 4.992188 L 36.835938 5.90625 L 36.859375 7.40625 L 36.875 8.90625 L 31.796875 8.90625 L 31.796875 26.09375 L 34.921875 26.09375 L 34.921875 12.03125 L 40 12.03125 L 39.984375 7.835938 L 39.960938 3.640625 L 34.492188 1.859375 C 31.492188 0.882812 29.023438 0.09375 29.015625 0.101562 C 29.007812 0.109375 28.890625 0.570312 28.757812 1.125 C 28.46875 2.320312 28.242188 2.765625 27.65625 3.3125 C 26.71875 4.179688 25.367188 4.375 24.164062 3.8125 C 23.953125 3.71875 23.570312 3.421875 23.3125 3.15625 C 22.765625 2.609375 22.609375 2.265625 22.296875 0.929688 C 22.1875 0.460938 22.070312 0.078125 22.046875 0.0859375 C 22.015625 0.09375 19.546875 0.890625 16.5625 1.867188 Z M 16.5625 1.867188 "/>
<path style=" stroke:none;fill-rule:nonzero;fill:rgb(0%,0%,0%);fill-opacity:1;" d="M 5.46875 15.929688 L 0.0390625 17.703125 L 0.015625 21.898438 L 0 26.09375 L 5.078125 26.09375 L 5.078125 40 L 23.90625 40 L 23.90625 26.09375 L 28.984375 26.09375 L 28.96875 21.898438 L 28.945312 17.703125 L 23.4375 15.929688 C 20.414062 14.953125 17.929688 14.15625 17.921875 14.164062 C 17.921875 14.171875 17.804688 14.632812 17.664062 15.195312 C 17.367188 16.398438 17.148438 16.828125 16.5625 17.375 C 15.625 18.242188 14.273438 18.4375 13.070312 17.875 C 12.859375 17.78125 12.476562 17.484375 12.21875 17.21875 C 11.671875 16.671875 11.515625 16.328125 11.203125 14.992188 C 11.09375 14.523438 10.976562 14.140625 10.953125 14.148438 C 10.921875 14.15625 8.453125 14.953125 5.46875 15.929688 Z M 9.179688 18.453125 C 9.976562 19.664062 11.148438 20.5625 12.5 21 C 14.265625 21.578125 16.140625 21.351562 17.796875 20.375 C 18.34375 20.046875 19.257812 19.164062 19.648438 18.570312 C 19.8125 18.328125 19.984375 18.125 20.03125 18.125 C 20.078125 18.125 21.398438 18.546875 22.96875 19.054688 L 25.820312 19.976562 L 25.84375 21.476562 L 25.859375 22.96875 L 20.78125 22.96875 L 20.78125 36.875 L 8.203125 36.875 L 8.203125 22.96875 L 3.125 22.96875 L 3.140625 21.46875 L 3.164062 19.96875 L 5.976562 19.054688 C 7.523438 18.546875 8.828125 18.132812 8.875 18.132812 C 8.921875 18.125 9.0625 18.273438 9.179688 18.453125 Z M 9.179688 18.453125 "/>
</g>
</svg>
