<?xml version="1.0" encoding="UTF-8"?>
<svg xmlns="http://www.w3.org/2000/svg" xmlns:xlink="http://www.w3.org/1999/xlink" width="40px" height="40px" viewBox="0 0 40 40" version="1.1">
<g id="surface1">
<path style=" stroke:none;fill-rule:nonzero;fill:rgb(0%,0%,0%);fill-opacity:1;" d="M 13.359375 0.125 C 12.070312 0.398438 10.890625 1.34375 10.304688 2.5625 C 9.890625 3.421875 9.84375 3.820312 9.84375 6.859375 L 9.84375 9.625 L 9.578125 9.9375 C 9.242188 10.328125 9.140625 10.765625 9.140625 11.78125 C 9.140625 12.6875 9.265625 13.226562 9.5625 13.617188 C 9.789062 13.914062 10.460938 14.296875 10.757812 14.296875 C 10.882812 14.296875 10.945312 14.351562 10.96875 14.46875 C 11.265625 16.023438 11.46875 16.578125 12.070312 17.539062 C 12.46875 18.179688 13.109375 18.867188 13.78125 19.375 L 14.21875 19.703125 L 14.21875 20.65625 C 14.21875 21.171875 14.179688 21.734375 14.132812 21.898438 C 13.945312 22.59375 13.273438 23 12.609375 22.8125 C 12.226562 22.703125 12.484375 22.632812 8.757812 23.796875 C 7.3125 24.25 5.882812 24.726562 5.578125 24.851562 C 3.351562 25.78125 1.601562 27.960938 1.085938 30.429688 C 0.898438 31.34375 0.898438 31.453125 1.132812 31.679688 C 1.53125 32.085938 2.046875 31.8125 2.140625 31.125 C 2.4375 29.054688 3.664062 27.226562 5.4375 26.226562 C 6.039062 25.890625 6.695312 25.65625 9.804688 24.6875 L 12.304688 23.90625 L 12.460938 24.125 C 12.546875 24.242188 12.851562 24.570312 13.140625 24.859375 C 15.507812 27.210938 20.179688 27.515625 23.1875 25.515625 C 23.6875 25.1875 24.429688 24.476562 24.6875 24.078125 L 24.804688 23.90625 L 26.5625 24.453125 C 27.523438 24.757812 28.320312 25.015625 28.335938 25.03125 C 28.351562 25.046875 28.25 25.101562 28.109375 25.164062 C 27.1875 25.539062 26 26.460938 25.28125 27.351562 C 24 28.960938 23.390625 30.96875 23.59375 32.945312 C 23.773438 34.664062 24.28125 35.820312 25.570312 37.476562 L 25.71875 37.65625 L 22.65625 37.65625 L 22.65625 36.03125 C 22.65625 34.382812 22.59375 33.921875 22.320312 33.390625 C 22.125 33.007812 21.726562 32.648438 21.25 32.429688 C 20.867188 32.25 20.726562 32.226562 19.921875 32.226562 C 19.117188 32.226562 18.976562 32.25 18.59375 32.429688 C 18.117188 32.648438 17.71875 33.007812 17.523438 33.390625 C 17.25 33.921875 17.1875 34.382812 17.1875 36.03125 L 17.1875 37.65625 L 15.859375 37.65625 L 15.859375 35.164062 C 15.859375 33.75 15.828125 32.578125 15.78125 32.46875 C 15.695312 32.242188 15.382812 32.132812 15.117188 32.234375 C 14.898438 32.320312 13.710938 33.71875 13.59375 34.023438 C 13.523438 34.210938 13.53125 34.28125 13.65625 34.445312 C 13.882812 34.757812 14.085938 34.742188 14.367188 34.398438 L 14.609375 34.101562 L 14.609375 37.65625 L 6.953125 37.65625 L 6.953125 34.9375 C 6.953125 32.054688 6.9375 31.929688 6.570312 31.75 C 6.34375 31.632812 5.96875 31.742188 5.859375 31.953125 C 5.8125 32.03125 5.78125 32.765625 5.78125 33.585938 L 5.78125 35.078125 L 2.109375 35.078125 L 2.109375 34.578125 C 2.109375 33.960938 2 33.640625 1.75 33.523438 C 1.476562 33.398438 1.382812 33.414062 1.140625 33.601562 L 0.9375 33.757812 L 0.9375 35.53125 C 0.9375 37.234375 0.945312 37.320312 1.125 37.695312 C 1.34375 38.164062 1.640625 38.453125 2.109375 38.664062 C 2.460938 38.820312 2.554688 38.828125 14.828125 38.828125 L 27.1875 38.828125 L 27.757812 39.109375 C 28.835938 39.65625 29.742188 39.898438 30.992188 39.96875 C 34.085938 40.148438 37 38.359375 38.359375 35.445312 C 38.890625 34.320312 39.023438 33.664062 39.023438 32.226562 C 39.023438 31.164062 39 30.875 38.84375 30.3125 C 38.148438 27.757812 36.25 25.703125 33.820312 24.882812 C 33.070312 24.625 32.007812 24.453125 31.148438 24.453125 C 30.5 24.453125 30.328125 24.414062 28.101562 23.71875 C 24.671875 22.648438 24.953125 22.71875 24.476562 22.820312 C 24.109375 22.90625 24.039062 22.898438 23.695312 22.726562 C 23.421875 22.585938 23.265625 22.445312 23.125 22.1875 C 22.953125 21.875 22.929688 21.726562 22.90625 20.78125 L 22.875 19.726562 L 23.507812 19.234375 C 24.84375 18.203125 25.796875 16.585938 26.085938 14.867188 L 26.179688 14.3125 L 26.5 14.273438 C 26.929688 14.21875 27.40625 13.867188 27.695312 13.40625 C 27.921875 13.03125 27.929688 12.984375 27.953125 11.96875 C 27.984375 10.75 27.90625 10.375 27.523438 9.867188 L 27.265625 9.53125 L 27.265625 8.398438 C 27.265625 7.367188 27.25 7.25 27.109375 7.109375 C 26.898438 6.898438 26.476562 6.90625 26.28125 7.117188 C 26.15625 7.257812 26.125 7.445312 26.09375 8.335938 L 26.054688 9.382812 L 25.625 9.53125 C 25.390625 9.617188 25.1875 9.679688 25.1875 9.6875 C 25.179688 9.6875 25.15625 8.796875 25.140625 7.710938 C 25.09375 5.507812 25.046875 5.265625 24.5625 4.695312 C 23.96875 4.007812 23.1875 3.78125 21.648438 3.851562 C 20.601562 3.898438 20.273438 4 19.609375 4.46875 C 19.148438 4.789062 19.101562 4.804688 18.5625 4.804688 C 18.007812 4.804688 17.96875 4.789062 17.453125 4.4375 C 17.15625 4.242188 16.773438 4.03125 16.601562 3.96875 C 16.179688 3.828125 14.148438 3.828125 13.664062 3.96875 C 13.148438 4.125 12.59375 4.578125 12.3125 5.078125 L 12.070312 5.507812 L 12.046875 7.59375 C 12.03125 8.75 12 9.6875 11.96875 9.6875 C 11.9375 9.679688 11.71875 9.617188 11.484375 9.53125 L 11.054688 9.382812 L 11.03125 6.820312 C 11.023438 5.203125 11.046875 4.109375 11.09375 3.851562 C 11.289062 2.9375 12 1.976562 12.796875 1.570312 C 13.5625 1.179688 13.703125 1.171875 18.554688 1.171875 C 23.460938 1.171875 23.65625 1.1875 24.390625 1.601562 C 25.390625 2.15625 26.09375 3.3125 26.09375 4.398438 C 26.09375 4.890625 26.21875 5.164062 26.507812 5.296875 C 26.679688 5.382812 26.75 5.375 26.9375 5.28125 C 27.226562 5.132812 27.265625 5.023438 27.265625 4.429688 C 27.265625 3.296875 26.773438 2.164062 25.9375 1.328125 C 25.34375 0.734375 24.695312 0.367188 23.859375 0.15625 C 23.289062 0.0078125 22.992188 0 18.5625 0.0078125 C 14.835938 0.0078125 13.765625 0.03125 13.359375 0.125 Z M 16.25 5.101562 C 16.398438 5.15625 16.679688 5.3125 16.867188 5.453125 C 17.9375 6.234375 19.164062 6.203125 20.375 5.375 C 20.851562 5.039062 21.265625 4.96875 22.40625 5.015625 C 23.046875 5.039062 23.210938 5.070312 23.421875 5.226562 C 23.929688 5.585938 23.9375 5.640625 23.984375 8.335938 L 24.023438 10.78125 L 24.242188 10.992188 C 24.53125 11.289062 24.953125 11.289062 25.34375 10.992188 C 25.960938 10.515625 26.554688 10.40625 26.703125 10.742188 C 26.851562 11.0625 26.828125 12.617188 26.671875 12.851562 C 26.539062 13.054688 26.140625 13.203125 25.71875 13.203125 C 25.578125 13.203125 25.390625 13.242188 25.3125 13.28125 C 25.140625 13.375 25 13.804688 25 14.226562 C 25 14.695312 24.703125 15.703125 24.382812 16.367188 C 23.640625 17.867188 22.257812 19 20.46875 19.570312 C 19.617188 19.84375 18.15625 19.921875 17.304688 19.742188 C 15.132812 19.28125 13.28125 17.796875 12.546875 15.929688 C 12.289062 15.265625 12.203125 14.929688 12.117188 14.15625 C 12.03125 13.335938 11.945312 13.234375 11.304688 13.1875 C 10.445312 13.117188 10.3125 12.921875 10.3125 11.726562 C 10.3125 10.898438 10.414062 10.601562 10.695312 10.5625 C 10.9375 10.523438 11.507812 10.75 11.789062 10.984375 C 12.101562 11.242188 12.40625 11.289062 12.734375 11.117188 C 13.164062 10.898438 13.195312 10.71875 13.195312 8.125 C 13.203125 5.953125 13.210938 5.804688 13.359375 5.5625 C 13.625 5.132812 14.03125 5 15.078125 5.007812 C 15.601562 5.007812 16.09375 5.046875 16.25 5.101562 Z M 16.015625 20.578125 C 17.609375 21.15625 19.742188 21.140625 21.257812 20.546875 C 21.46875 20.460938 21.65625 20.390625 21.671875 20.390625 C 21.6875 20.390625 21.71875 20.75 21.742188 21.1875 C 21.789062 22.148438 21.984375 22.726562 22.414062 23.21875 C 22.585938 23.40625 22.84375 23.625 23 23.710938 C 23.15625 23.796875 23.28125 23.890625 23.28125 23.914062 C 23.28125 23.945312 23.117188 24.117188 22.914062 24.289062 C 22.398438 24.734375 21.429688 25.195312 20.5 25.445312 C 19.4375 25.726562 17.8125 25.75 16.78125 25.484375 C 15.664062 25.210938 14.625 24.703125 14.046875 24.15625 C 13.78125 23.914062 13.773438 23.851562 14 23.78125 C 14.320312 23.679688 14.898438 23.054688 15.125 22.554688 C 15.3125 22.140625 15.351562 21.945312 15.375 21.226562 C 15.390625 20.765625 15.429688 20.390625 15.445312 20.390625 C 15.46875 20.390625 15.726562 20.476562 16.015625 20.578125 Z M 32.34375 25.710938 C 35.015625 26.132812 37.226562 28.242188 37.765625 30.875 C 37.835938 31.203125 37.890625 31.8125 37.890625 32.226562 C 37.890625 37.242188 32.53125 40.414062 28.132812 38 C 25.375 36.484375 24.070312 33.179688 25.046875 30.164062 C 26.039062 27.132812 29.195312 25.203125 32.34375 25.710938 Z M 20.703125 33.453125 C 20.953125 33.578125 21.109375 33.734375 21.25 33.984375 C 21.4375 34.320312 21.445312 34.390625 21.46875 35.992188 L 21.492188 37.65625 L 18.359375 37.65625 L 18.359375 36.148438 C 18.359375 34.460938 18.445312 34 18.804688 33.65625 C 19.101562 33.367188 19.335938 33.289062 19.882812 33.289062 C 20.226562 33.28125 20.453125 33.328125 20.703125 33.453125 Z M 5.78125 36.953125 L 5.78125 37.65625 L 2.5625 37.65625 L 2.335938 37.414062 C 2.140625 37.203125 2.109375 37.109375 2.109375 36.710938 L 2.109375 36.25 L 5.78125 36.25 Z M 5.78125 36.953125 "/>
<path style=" stroke:none;fill-rule:nonzero;fill:rgb(0%,0%,0%);fill-opacity:1;" d="M 30.039062 27.492188 C 29.953125 27.53125 29.8125 27.640625 29.726562 27.734375 C 29.585938 27.890625 29.570312 28.039062 29.546875 29.1875 L 29.515625 30.46875 L 27.03125 30.46875 L 26.78125 30.695312 L 26.523438 30.921875 L 26.523438 33.53125 L 26.78125 33.757812 L 27.03125 33.984375 L 29.515625 33.984375 L 29.546875 35.273438 L 29.570312 36.5625 L 29.789062 36.773438 C 30 36.992188 30.015625 36.992188 31.179688 37.015625 C 33.039062 37.054688 33.046875 37.054688 33.046875 35.257812 L 33.046875 33.984375 L 34.257812 33.984375 C 35.546875 33.984375 35.84375 33.921875 36.015625 33.601562 C 36.117188 33.398438 36.117188 31.054688 36.015625 30.851562 C 35.84375 30.53125 35.546875 30.46875 34.257812 30.46875 L 33.046875 30.46875 L 33.046875 29.210938 C 33.046875 28.5 33.015625 27.890625 32.96875 27.804688 C 32.796875 27.492188 32.492188 27.421875 31.3125 27.429688 C 30.695312 27.429688 30.125 27.460938 30.039062 27.492188 Z M 31.882812 29.703125 C 31.890625 31.570312 31.960938 31.640625 33.773438 31.640625 L 34.921875 31.640625 L 34.921875 32.8125 L 33.773438 32.8125 C 31.960938 32.8125 31.890625 32.882812 31.882812 34.742188 L 31.875 35.859375 L 30.703125 35.859375 L 30.703125 34.648438 C 30.703125 33.914062 30.671875 33.367188 30.617188 33.25 C 30.453125 32.890625 30.132812 32.8125 28.835938 32.8125 L 27.65625 32.8125 L 27.65625 31.640625 L 28.835938 31.640625 C 30.132812 31.640625 30.453125 31.5625 30.617188 31.203125 C 30.671875 31.085938 30.703125 30.539062 30.703125 29.804688 L 30.703125 28.59375 L 31.875 28.59375 Z M 31.882812 29.703125 "/>
</g>
</svg>
