<?xml version="1.0" encoding="UTF-8"?>
<svg xmlns="http://www.w3.org/2000/svg" xmlns:xlink="http://www.w3.org/1999/xlink" width="15px" height="15px" viewBox="0 0 15 15" version="1.1">
<g id="surface1">
<path style=" stroke:none;fill-rule:nonzero;fill:rgb(0%,0%,0%);fill-opacity:1;" d="M 4.9375 0.0195312 C 3.882812 0.144531 3.179688 0.390625 2.386719 0.921875 C 1.15625 1.742188 0.3125 3.054688 0.0742188 4.511719 C -0.414062 7.476562 1.632812 10.265625 4.613281 10.707031 C 5.011719 10.765625 5.777344 10.765625 6.164062 10.707031 C 7.0625 10.570312 7.878906 10.230469 8.613281 9.6875 L 8.832031 9.523438 L 9.03125 9.71875 L 9.226562 9.914062 L 9.109375 10.039062 C 8.921875 10.238281 8.890625 10.324219 8.890625 10.605469 C 8.890625 10.804688 8.90625 10.878906 8.957031 10.972656 C 8.992188 11.039062 9.832031 11.898438 10.933594 12.996094 C 12.742188 14.804688 12.855469 14.910156 13.003906 14.957031 C 13.203125 15.019531 13.445312 15.003906 13.625 14.914062 C 13.796875 14.824219 14.824219 13.796875 14.914062 13.625 C 15.003906 13.445312 15.015625 13.234375 14.960938 13.019531 C 14.910156 12.847656 14.90625 12.84375 13 10.933594 C 11.902344 9.835938 11.039062 8.992188 10.972656 8.957031 C 10.878906 8.90625 10.804688 8.890625 10.605469 8.890625 C 10.324219 8.890625 10.238281 8.921875 10.039062 9.109375 L 9.914062 9.226562 L 9.71875 9.03125 L 9.523438 8.832031 L 9.6875 8.613281 C 10.226562 7.882812 10.570312 7.0625 10.707031 6.15625 C 10.765625 5.773438 10.765625 5.015625 10.707031 4.617188 C 10.617188 4.015625 10.464844 3.527344 10.203125 3.003906 C 9.371094 1.335938 7.789062 0.230469 5.941406 0.03125 C 5.675781 0.00390625 5.136719 -0.00390625 4.9375 0.0195312 Z M 6.125 1.046875 C 6.464844 1.097656 7 1.273438 7.328125 1.4375 C 8.582031 2.0625 9.441406 3.199219 9.714844 4.585938 C 9.789062 4.960938 9.789062 5.769531 9.714844 6.167969 C 9.378906 7.976562 7.976562 9.378906 6.167969 9.714844 C 5.734375 9.796875 4.929688 9.789062 4.519531 9.703125 C 3.652344 9.515625 2.898438 9.109375 2.289062 8.5 C 1.9375 8.148438 1.707031 7.839844 1.492188 7.433594 C 1.210938 6.902344 1.046875 6.328125 1 5.734375 C 0.921875 4.734375 1.171875 3.769531 1.730469 2.925781 C 1.976562 2.558594 2.558594 1.976562 2.925781 1.730469 C 3.882812 1.09375 4.972656 0.863281 6.125 1.046875 Z M 10.855469 10.164062 L 11.089844 10.398438 L 10.398438 11.089844 L 10.160156 10.84375 L 9.917969 10.605469 L 10.253906 10.269531 C 10.4375 10.085938 10.597656 9.929688 10.605469 9.929688 C 10.613281 9.929688 10.726562 10.039062 10.855469 10.164062 Z M 12.871094 12.179688 L 13.945312 13.257812 L 13.257812 13.945312 L 11.089844 11.777344 L 11.425781 11.441406 C 11.609375 11.257812 11.769531 11.101562 11.777344 11.101562 C 11.785156 11.101562 12.273438 11.585938 12.871094 12.179688 Z M 12.871094 12.179688 "/>
<path style=" stroke:none;fill-rule:nonzero;fill:rgb(0%,0%,0%);fill-opacity:1;" d="M 5.140625 2.03125 C 5.007812 2.101562 4.890625 2.300781 4.890625 2.445312 C 4.894531 2.578125 4.988281 2.765625 5.097656 2.84375 C 5.167969 2.890625 5.257812 2.914062 5.457031 2.9375 C 6.003906 2.984375 6.355469 3.101562 6.714844 3.335938 C 7.101562 3.59375 7.386719 3.921875 7.585938 4.335938 C 7.730469 4.644531 7.789062 4.855469 7.820312 5.234375 C 7.847656 5.570312 7.894531 5.679688 8.046875 5.785156 C 8.242188 5.914062 8.5625 5.867188 8.703125 5.6875 C 8.804688 5.5625 8.828125 5.40625 8.792969 5.070312 C 8.628906 3.5 7.464844 2.257812 5.933594 2.007812 C 5.539062 1.941406 5.285156 1.949219 5.140625 2.03125 Z M 5.140625 2.03125 "/>
</g>
</svg>
